# xmcd
#
# Track frame offsets: 
#        150
#        22425
#        46558
#        80213
#        100878
#        118038
#
# Disc length: 2130 seconds
#
# Revision: 0
# Processed by: cddbd v1.5.2PL0 Copyright (c) Steve Scherf et al.
# Submitted via: ExactAudioCopy v0.99pb5
#
DISCID=4b085006
DTITLE=Rush  - Permanent Waves - Warner Bros. 13478 (SHM)  
DYEAR=1900
DGENRE=
TTITLE0=The Spirit Of Radio
TTITLE1=Freewill
TTITLE2=Jacob's Ladder
TTITLE3=Entre Nous
TTITLE4=Different Strings
TTITLE5=Natural Science
EXTD=
EXTT0=
EXTT1=
EXTT2=
EXTT3=
EXTT4=
EXTT5=
PLAYORDER=
